<?xml version="1.0" encoding="utf-8"?>
<!-- Generator: Adobe Illustrator 21.0.0, SVG Export Plug-In . SVG Version: 6.00 Build 0)  -->
<svg version="1.1" id="圖層_1" xmlns="http://www.w3.org/2000/svg" xmlns:xlink="http://www.w3.org/1999/xlink" x="0px" y="0px"
	 viewBox="0 0 100 100" style="enable-background:new 0 0 100 100;" xml:space="preserve">
<style type="text/css">
	.st0{fill:#C6A869;}
	.st1{fill:#7B7B7B;}
</style>
<g>
	<path class="st0" d="M50,2c26.467,0,48,21.533,48,48c0,26.467-21.533,48-48,48C23.533,98,2,76.467,2,50C2,23.533,23.533,2,50,2
		 M50,0L50,0C22.386,0,0,22.386,0,50v0c0,27.614,22.386,50,50,50h0c27.614,0,50-22.386,50-50v0C100,22.386,77.614,0,50,0L50,0z"/>
	<path class="st1" d="M45.665,59.322c-0.293,0.293-0.734,0.516-1.224,0.707c-1.848,0.721-4.747,0.721-6.594,0
		c-0.49-0.191-0.93-0.414-1.223-0.707c-0.391-0.391-1.023-0.391-1.414,0s-0.391,1.023,0,1.414c1.248,1.248,3.592,1.871,5.936,1.871
		c2.342,0,4.686-0.623,5.934-1.871c0.391-0.391,0.391-1.023,0-1.414S46.056,58.931,45.665,59.322z"/>
	<path class="st1" d="M64.601,60.736c0.391-0.391,0.391-1.023,0-1.414s-1.023-0.391-1.414,0c-0.281,0.281-0.726,0.509-1.231,0.707
		c-0.889,0.348-2.032,0.568-3.289,0.568s-2.4-0.22-3.289-0.568c-0.505-0.198-0.95-0.426-1.231-0.707
		c-0.391-0.391-1.023-0.391-1.414,0s-0.391,1.023,0,1.414c1.166,1.165,3.385,1.861,5.934,1.861
		C61.218,62.597,63.437,61.901,64.601,60.736z"/>
	<path class="st1" d="M44.511,13.388c-0.391,0.391-0.391,1.023,0,1.414c1.604,1.604,1.154,3.487,0,4.644
		c-0.391,0.391-0.391,1.024,0,1.414c0.195,0.195,0.451,0.293,0.707,0.293s0.512-0.098,0.707-0.293c1.855-1.857,2.451-5.02,0-7.472
		C45.534,12.997,44.901,12.997,44.511,13.388z"/>
	<path class="st1" d="M78.339,59.644c-0.602,0-1.167,0.141-1.68,0.378c0.922-2.744,1.531-5.927,1.531-9.584
		c0-11.484-5.969-23.046-17.442-27.505c1.005-1.345,1.621-2.996,1.621-4.8c0-4.448-3.619-8.066-8.066-8.066h-1.326h-5.047h-1.703
		c-4.447,0-8.066,3.618-8.066,8.066c0,1.758,0.581,3.374,1.54,4.701C28.063,27.219,22.009,38.87,22.009,50.438
		c0,8.862,3.523,15.009,6.603,18.561c-1.484,0.132-2.808,1.193-3.207,2.624c-2.139-0.261-4.07,1.449-4.07,3.597
		c0,1.188,0.582,2.269,1.506,2.933c-0.539,0.643-0.85,1.461-0.85,2.317c0,1.998,1.627,3.624,3.625,3.624
		c0.641,0,1.268-0.175,1.816-0.495c0.484,1.431,1.84,2.464,3.434,2.464c1.096,0,2.115-0.497,2.795-1.334
		c0.882,0.076,1.742-0.077,2.531-0.39c1.012,1.345,2.606,2.229,4.414,2.229c1.675,0,3.16-0.762,4.177-1.939
		c1.808,0.746,3.569,1.135,5.149,1.135c2.447,0,5.318-0.893,8.144-2.705c0.087,0.351,0.218,0.695,0.417,1.014
		c0.662,1.058,1.803,1.64,2.967,1.64c0.633-0.001,1.273-0.172,1.848-0.53c0.238-0.149,0.455-0.327,0.65-0.53
		c1.508,0.51,3.195,0.331,4.564-0.526c0.123-0.077,0.246-0.16,0.363-0.249c0.977,0.324,2.055,0.206,2.939-0.347
		c0.791-0.495,1.344-1.268,1.553-2.177c0.117-0.508,0.121-1.024,0.006-1.531c0.592-0.027,1.172-0.203,1.678-0.521
		c1.633-1.021,2.131-3.179,1.111-4.813c-0.428-0.685-1.08-1.188-1.828-1.441c0.393-1.005,0.311-2.16-0.287-3.115
		c-0.461-0.737-1.17-1.255-1.999-1.492c0.825-1.011,1.666-2.194,2.451-3.574c0.511,1.638,2.024,2.838,3.829,2.838
		c2.221,0,4.027-1.808,4.027-4.029S80.56,59.644,78.339,59.644z M78.339,65.701c-1.119,0-2.029-0.91-2.029-2.029
		c0-1.118,0.91-2.028,2.029-2.028c1.117,0,2.027,0.91,2.027,2.028C80.366,64.791,79.456,65.701,78.339,65.701z M72.362,70.99
		c0.357,0.573,0.279,1.319-0.191,1.813c-0.316,0.332-0.314,0.908-0.07,1.295l0.127,0.231c0.184,0.338,0.523,0.557,0.922,0.527
		c0.531-0.022,1.045,0.236,1.328,0.688c0.436,0.698,0.223,1.622-0.475,2.059c-0.355,0.22-0.775,0.281-1.189,0.164
		c-0.367-0.103-0.77,0.017-1.023,0.309c-0.111,0.13-0.24,0.25-0.375,0.362c-0.391,0.328-0.457,0.912-0.174,1.336
		c0.211,0.338,0.279,0.737,0.189,1.126s-0.326,0.719-0.666,0.932c-0.467,0.292-1.057,0.296-1.543,0.011
		c-0.383-0.227-0.877-0.167-1.199,0.145c-0.174,0.168-0.361,0.315-0.559,0.439c-1.02,0.635-2.309,0.676-3.367,0.11
		c-0.48-0.252-1.078-0.08-1.346,0.398c-0.131,0.236-0.301,0.421-0.504,0.548c-0.701,0.44-1.621,0.224-2.059-0.473
		c-0.275-0.442-0.294-0.987-0.055-1.462c0.002-0.003,0.001-0.007,0.002-0.01c0.135-0.262,0.148-0.569,0.035-0.841
		c-0.113-0.272-0.342-0.48-0.621-0.569c-0.144-0.046-0.316-0.143-0.485-0.276c-0.117-0.092-0.234-0.192-0.33-0.345
		c-0.402-0.642-0.252-1.481,0.352-1.954c0.268-0.211,0.41-0.543,0.379-0.883c-0.033-0.339-0.236-0.639-0.539-0.794
		c-0.252-0.129-0.451-0.308-0.59-0.528c-0.436-0.698-0.223-1.621,0.477-2.058c0.234-0.147,0.502-0.223,0.773-0.223
		c0.182,0,0.367,0.034,0.547,0.103c0.43,0.166,0.924,0.011,1.184-0.373c0.264-0.39,0.6-0.713,0.996-0.961
		c0.148-0.093,0.317-0.131,0.475-0.199c0.509-0.217,1.049-0.346,1.609-0.293c0.404,0.034,0.746-0.149,0.943-0.474
		c0.129-0.208,0.287-0.373,0.471-0.487c0.06-0.038,0.128-0.044,0.191-0.072c0.42-0.188,0.876-0.169,1.269,0.031
		c0.234,0.119,0.45,0.277,0.599,0.515l0.094,0.201c0.002,0.005,0.008,0.007,0.01,0.012c0.158,0.344,0.493,0.569,0.871,0.584
		c0.003,0,0.005,0.002,0.008,0.003c0.338,0.024,0.742-0.202,0.92-0.548c0.129-0.254,0.307-0.454,0.531-0.595
		c0.34-0.212,0.738-0.277,1.127-0.189C71.819,70.415,72.151,70.651,72.362,70.99z M70.936,55.625
		c1.218,0.231,2.412,0.357,3.557,0.357c0.553,0,1-0.447,1-1s-0.447-1-1-1c-10.42,0-23.229-10.243-23.229-18.576c0-0.553-0.447-1-1-1
		s-1,0.447-1,1c0,8.507-12.316,18.576-22.723,18.576c-0.553,0-1,0.447-1,1s0.447,1,1,1c0.789,0,1.586-0.069,2.385-0.167
		c-0.021,1.259,0.012,2.534,0.154,3.819c0.37,3.328,1.063,6.313,1.99,8.977c-0.026,0.009-0.054,0.01-0.08,0.019
		c-2.898-2.974-6.982-8.996-6.982-18.192c0-11.042,5.878-22.189,17.205-26.036c0.83-0.282,1.693-0.518,2.582-0.719
		c1.062-0.24,2.161-0.425,3.307-0.54c0.046,0.006,0.087,0.027,0.135,0.027c0.138,0,0.263-0.042,0.397-0.054
		c0.807-0.066,1.617-0.125,2.464-0.125c2.326,0,4.487,0.274,6.51,0.748c0.896,0.21,1.765,0.458,2.601,0.752
		c11.175,3.919,16.981,14.98,16.981,25.946c0,9.575-4.433,15.722-7.339,18.556c-0.048-0.041-0.107-0.062-0.157-0.1
		c0.977-2.734,1.709-5.813,2.092-9.26C70.936,58.268,70.965,56.935,70.936,55.625z M37.883,83.26
		c-0.209-0.254-0.393-0.529-0.526-0.835c-0.168-0.388-0.259-0.815-0.277-1.26c-0.002-0.048-0.014-0.093-0.014-0.142
		c0-0.57,0.148-1.101,0.388-1.578c0.308-0.612,0.783-1.119,1.372-1.466c0.354-0.208,0.741-0.361,1.159-0.436
		c0.203-0.036,0.409-0.063,0.623-0.063c0.302,0,0.591,0.05,0.871,0.121c0.546,0.139,1.036,0.405,1.448,0.765
		c0.743,0.65,1.224,1.594,1.224,2.656c0,0.343-0.064,0.668-0.156,0.981c-0.196,0.674-0.583,1.261-1.104,1.705
		c-0.618,0.526-1.409,0.857-2.283,0.857C39.505,84.567,38.533,84.051,37.883,83.26z M33.392,82.669
		c-0.443-0.101-0.887,0.116-1.094,0.513c-0.285,0.543-0.834,0.88-1.432,0.88c-0.896,0-1.625-0.729-1.621-1.676
		c0-0.497-0.365-0.919-0.857-0.99c-0.188-0.026-0.371-0.063-0.549-0.117c-0.098-0.029-0.195-0.044-0.293-0.044
		c-0.275,0-0.545,0.114-0.738,0.324c-0.314,0.345-0.738,0.534-1.191,0.534c-0.896,0-1.625-0.729-1.625-1.624
		c0-0.582,0.309-1.106,0.826-1.402c0.338-0.192,0.533-0.563,0.5-0.95c-0.008-0.091-0.014-0.181-0.01-0.364
		c0-0.456-0.309-0.854-0.752-0.969c-0.719-0.185-1.221-0.828-1.221-1.564c0-1.186,1.379-2.038,2.459-1.384
		c0.328,0.2,0.75,0.192,1.074-0.024c0.322-0.216,0.49-0.6,0.432-0.983c-0.012-0.077-0.027-0.153-0.027-0.233
		c0.002-1.134,1.207-2.009,2.342-1.446c0.331,0.165,0.725,0.126,1.025-0.089c0.008-0.006,0.018-0.004,0.026-0.01
		c0.279-0.213,0.588-0.371,0.91-0.492c0.076-0.028,0.156-0.036,0.234-0.059c0.367-0.11,0.744-0.157,1.127-0.147
		c0.345,0.009,0.683,0.066,1.015,0.175c0.109,0.036,0.224,0.048,0.33,0.095c0.422,0.187,0.918,0.059,1.201-0.31
		c0.314-0.415,0.785-0.652,1.289-0.652c0.896,0,1.625,0.729,1.625,1.624c0,0.121-0.022,0.24-0.05,0.357
		c-0.039,0.161-0.096,0.319-0.186,0.469c-0.176,0.293-0.189,0.655-0.037,0.961s0.449,0.512,0.789,0.548
		c0.828,0.088,1.453,0.776,1.453,1.603c0,0.113-0.04,0.194-0.061,0.292c-1.036,0.057-2.001,0.38-2.81,0.931
		c-0.554,0.378-1.032,0.858-1.417,1.407c-0.633,0.901-1.011,1.992-1.011,3.174c0,0.52,0.095,1.013,0.229,1.49
		C34.692,82.721,34.043,82.807,33.392,82.669z M60.37,18.133c0,1.588-0.626,3.023-1.627,4.105c-0.987-0.296-2.011-0.537-3.071-0.728
		c0.196-0.198,0.398-0.389,0.568-0.626c0.811-1.133,1.256-2.676,1.256-4.345c0-1.419-0.34-2.864-0.967-4.037
		C58.773,13.392,60.37,15.575,60.37,18.133z M52.978,12.067c1.506,0,2.518,2.313,2.518,4.473c0,1.256-0.314,2.386-0.883,3.182
		c-0.613,0.857-1.504,1.292-2.646,1.292c-0.103,0-0.196,0.03-0.29,0.058c-0.27-0.013-0.534-0.035-0.808-0.041
		c0.048-0.075,0.109-0.13,0.154-0.209c0.703-1.213,1.092-2.814,1.092-4.51c0-1.709-0.384-3.162-1.029-4.245H52.978z M40.161,18.133
		c0-3.345,2.721-6.066,6.066-6.066h1.703c1.418,0,2.184,2.188,2.184,4.245c0,1.328-0.301,2.606-0.822,3.505
		c-0.438,0.756-1.004,1.179-1.671,1.3c-2.091,0.158-4.052,0.517-5.893,1.047C40.765,21.09,40.161,19.686,40.161,18.133z
		 M49.933,83.762c-1.133,0-2.563-0.296-4.118-0.909c0.203-0.576,0.335-1.185,0.335-1.829c0-2.461-1.623-4.528-3.846-5.249
		c0.03-0.184,0.061-0.368,0.061-0.555c0-1.421-0.82-2.66-2.037-3.248c0.022-0.11,0.021-0.222,0.033-0.333
		c0.012-0.119,0.035-0.237,0.035-0.357c0-1.998-1.627-3.624-3.625-3.624c-0.879,0-1.707,0.315-2.359,0.883
		c-0.438-0.129-0.89-0.184-1.343-0.202c-0.921-2.583-1.623-5.54-1.999-8.925c-0.148-1.331-0.177-2.648-0.137-3.942
		c8.34-1.816,16.561-8.378,19.341-15.296c2.796,6.756,10.946,12.821,18.652,14.971c0.059,1.385,0.034,2.808-0.126,4.267
		c-0.369,3.318-1.055,6.218-1.95,8.765c-0.713-0.051-1.447,0.104-2.097,0.51c-0.279,0.175-0.531,0.39-0.75,0.642
		c-0.975,0.014-1.916,0.29-2.748,0.812c-0.43,0.268-0.814,0.591-1.148,0.965c-0.813-0.121-1.643,0.044-2.352,0.488
		c-0.021,0.013-0.036,0.03-0.056,0.043c-1.584,1.036-2.062,3.156-1.055,4.77c0.111,0.178,0.238,0.345,0.383,0.5
		c-0.676,1.098-0.705,2.513,0.014,3.659c0.113,0.18,0.247,0.344,0.39,0.499C54.605,82.959,51.852,83.762,49.933,83.762z"/>
</g>
</svg>
