<?xml version="1.0" encoding="utf-8"?>
<!-- Generator: Adobe Illustrator 21.0.0, SVG Export Plug-In . SVG Version: 6.00 Build 0)  -->
<svg version="1.1" id="圖層_1" xmlns="http://www.w3.org/2000/svg" xmlns:xlink="http://www.w3.org/1999/xlink" x="0px" y="0px"
	 viewBox="0 0 50 50" style="enable-background:new 0 0 50 50;" xml:space="preserve">
<style type="text/css">
	.st0{fill:#FFFFFF;}
	.st1{fill:#C6A869;}
	.st2{fill:#7B7B7B;}
</style>
<g>
	<path class="st0" d="M25,0L25,0C11.193,0,0,11.193,0,25v0c0,13.807,11.193,25,25,25h0c13.807,0,25-11.193,25-25v0
		C50,11.193,38.807,0,25,0L25,0z"/>
	<path class="st2" d="M22.833,29.661c-0.147,0.146-0.367,0.258-0.612,0.353c-0.924,0.36-2.373,0.361-3.297,0
		c-0.245-0.096-0.465-0.207-0.611-0.353c-0.195-0.195-0.512-0.195-0.707,0s-0.195,0.512,0,0.707
		c0.624,0.624,1.796,0.936,2.968,0.936c1.171,0,2.343-0.312,2.967-0.936c0.195-0.195,0.195-0.512,0-0.707
		S23.028,29.465,22.833,29.661z"/>
	<path class="st2" d="M32.3,30.368c0.195-0.195,0.195-0.512,0-0.707s-0.512-0.195-0.707,0c-0.141,0.14-0.363,0.254-0.615,0.353
		c-0.444,0.174-1.016,0.284-1.644,0.284s-1.2-0.11-1.644-0.284c-0.253-0.099-0.475-0.213-0.615-0.353
		c-0.195-0.195-0.512-0.195-0.707,0s-0.195,0.512,0,0.707c0.583,0.583,1.692,0.931,2.967,0.931
		C30.609,31.298,31.718,30.95,32.3,30.368z"/>
	<path class="st2" d="M22.255,6.694c-0.195,0.195-0.195,0.512,0,0.707c0.802,0.802,0.577,1.744,0,2.322
		c-0.195,0.195-0.195,0.512,0,0.707c0.098,0.098,0.226,0.146,0.354,0.146s0.256-0.049,0.354-0.146c0.928-0.929,1.226-2.51,0-3.736
		C22.767,6.499,22.451,6.499,22.255,6.694z"/>
	<path class="st1" d="M39.169,29.822c-0.301,0-0.583,0.071-0.84,0.189c0.461-1.372,0.766-2.964,0.766-4.792
		c0-5.742-2.984-11.523-8.721-13.752c0.502-0.673,0.811-1.498,0.811-2.4c0-2.224-1.81-4.033-4.033-4.033h-0.663h-2.523h-0.852
		c-2.224,0-4.033,1.809-4.033,4.033c0,0.879,0.291,1.687,0.77,2.35c-5.819,2.193-8.846,8.018-8.846,13.802
		c0,4.431,1.761,7.504,3.302,9.28c-0.742,0.066-1.404,0.596-1.603,1.312c-1.069-0.13-2.035,0.725-2.035,1.798
		c0,0.594,0.291,1.134,0.753,1.466c-0.27,0.321-0.425,0.73-0.425,1.159c0,0.999,0.813,1.812,1.813,1.812
		c0.32,0,0.634-0.087,0.908-0.248c0.242,0.715,0.92,1.232,1.717,1.232c0.548,0,1.058-0.249,1.397-0.667
		c0.441,0.038,0.871-0.038,1.266-0.195c0.506,0.672,1.303,1.114,2.207,1.114c0.837,0,1.58-0.381,2.089-0.97
		c0.904,0.373,1.784,0.567,2.575,0.567c1.224,0,2.659-0.447,4.072-1.353c0.044,0.176,0.109,0.348,0.208,0.507
		c0.331,0.529,0.901,0.82,1.483,0.82c0.316,0,0.637-0.086,0.924-0.265c0.119-0.075,0.228-0.164,0.325-0.265
		c0.754,0.255,1.598,0.166,2.282-0.263c0.062-0.039,0.123-0.08,0.182-0.125c0.488,0.162,1.027,0.103,1.47-0.173
		c0.396-0.248,0.672-0.634,0.776-1.088c0.059-0.254,0.061-0.512,0.003-0.766c0.296-0.014,0.586-0.102,0.839-0.26
		c0.816-0.51,1.065-1.589,0.556-2.407c-0.214-0.342-0.54-0.594-0.914-0.721c0.196-0.502,0.155-1.08-0.144-1.558
		c-0.23-0.369-0.585-0.627-0.999-0.746c0.412-0.505,0.833-1.097,1.225-1.787c0.256,0.819,1.012,1.419,1.915,1.419
		c1.11,0,2.014-0.904,2.014-2.015S40.28,29.822,39.169,29.822z M39.169,32.851c-0.56,0-1.015-0.455-1.015-1.015
		c0-0.559,0.455-1.014,1.015-1.014c0.559,0,1.014,0.455,1.014,1.014C40.183,32.396,39.728,32.851,39.169,32.851z M36.181,35.495
		c0.179,0.287,0.14,0.66-0.096,0.907c-0.158,0.166-0.157,0.454-0.035,0.647l0.063,0.116c0.092,0.169,0.262,0.278,0.461,0.264
		c0.266-0.011,0.522,0.118,0.664,0.344c0.218,0.349,0.111,0.811-0.237,1.029c-0.178,0.11-0.388,0.141-0.595,0.082
		c-0.184-0.051-0.385,0.008-0.512,0.154c-0.056,0.065-0.12,0.125-0.188,0.181c-0.195,0.164-0.229,0.456-0.087,0.668
		c0.105,0.169,0.14,0.369,0.095,0.563s-0.163,0.359-0.333,0.466c-0.233,0.146-0.528,0.148-0.771,0.005
		c-0.191-0.113-0.438-0.083-0.6,0.072c-0.087,0.084-0.181,0.158-0.279,0.22c-0.51,0.317-1.154,0.338-1.684,0.055
		c-0.24-0.126-0.539-0.04-0.673,0.199c-0.065,0.118-0.15,0.21-0.252,0.274c-0.351,0.22-0.811,0.112-1.029-0.236
		c-0.138-0.221-0.147-0.494-0.028-0.731c0.001-0.002,0-0.003,0.001-0.005c0.067-0.131,0.074-0.285,0.018-0.42
		c-0.057-0.136-0.171-0.24-0.311-0.285c-0.072-0.023-0.158-0.071-0.242-0.138c-0.058-0.046-0.117-0.096-0.165-0.173
		c-0.201-0.321-0.126-0.741,0.176-0.977c0.134-0.105,0.205-0.271,0.189-0.441c-0.017-0.169-0.118-0.319-0.27-0.397
		c-0.126-0.064-0.226-0.154-0.295-0.264c-0.218-0.349-0.111-0.811,0.238-1.029c0.117-0.074,0.251-0.111,0.387-0.111
		c0.091,0,0.184,0.017,0.273,0.051c0.215,0.083,0.462,0.005,0.592-0.187c0.132-0.195,0.3-0.356,0.498-0.48
		c0.074-0.046,0.158-0.066,0.238-0.099c0.254-0.109,0.524-0.173,0.804-0.147c0.202,0.017,0.373-0.075,0.472-0.237
		c0.064-0.104,0.144-0.187,0.235-0.244c0.03-0.019,0.064-0.022,0.095-0.036c0.21-0.094,0.438-0.085,0.634,0.015
		c0.117,0.06,0.225,0.139,0.3,0.258l0.047,0.101c0.001,0.003,0.004,0.004,0.005,0.006c0.079,0.172,0.246,0.285,0.435,0.292
		c0.001,0,0.002,0.001,0.004,0.001c0.169,0.012,0.371-0.101,0.46-0.274c0.064-0.127,0.153-0.227,0.266-0.297
		c0.17-0.106,0.369-0.139,0.563-0.095C35.91,35.208,36.076,35.325,36.181,35.495z M35.468,27.812
		c0.609,0.115,1.206,0.179,1.779,0.179c0.276,0,0.5-0.224,0.5-0.5s-0.224-0.5-0.5-0.5c-5.21,0-11.614-5.122-11.614-9.288
		c0-0.276-0.224-0.5-0.5-0.5s-0.5,0.224-0.5,0.5c0,4.253-6.158,9.288-11.361,9.288c-0.276,0-0.5,0.224-0.5,0.5s0.224,0.5,0.5,0.5
		c0.394,0,0.793-0.034,1.192-0.083c-0.01,0.63,0.006,1.267,0.077,1.91c0.185,1.664,0.532,3.157,0.995,4.488
		c-0.013,0.004-0.027,0.005-0.04,0.009c-1.449-1.487-3.491-4.498-3.491-9.096c0-5.521,2.939-11.095,8.602-13.018
		c0.415-0.141,0.847-0.259,1.291-0.359c0.531-0.12,1.081-0.213,1.653-0.27c0.023,0.003,0.044,0.014,0.068,0.014
		c0.069,0,0.132-0.021,0.199-0.027c0.403-0.033,0.809-0.063,1.232-0.063c1.163,0,2.244,0.137,3.255,0.374
		c0.448,0.105,0.882,0.229,1.3,0.376c5.588,1.96,8.49,7.49,8.49,12.973c0,4.787-2.216,7.861-3.669,9.278
		c-0.024-0.02-0.054-0.031-0.079-0.05c0.489-1.367,0.854-2.906,1.046-4.63C35.468,29.134,35.483,28.467,35.468,27.812z
		 M18.941,41.63c-0.104-0.127-0.197-0.264-0.263-0.417c-0.084-0.194-0.13-0.407-0.139-0.63c-0.001-0.024-0.007-0.047-0.007-0.071
		c0-0.285,0.074-0.55,0.194-0.789c0.154-0.306,0.392-0.56,0.686-0.733c0.177-0.104,0.371-0.181,0.58-0.218
		c0.101-0.018,0.205-0.031,0.311-0.031c0.151,0,0.295,0.025,0.436,0.061c0.273,0.07,0.518,0.203,0.724,0.383
		c0.372,0.325,0.612,0.797,0.612,1.328c0,0.171-0.032,0.334-0.078,0.491c-0.098,0.337-0.291,0.63-0.552,0.852
		c-0.309,0.263-0.705,0.428-1.141,0.428C19.753,42.283,19.266,42.025,18.941,41.63z M16.696,41.335
		c-0.222-0.05-0.443,0.058-0.547,0.256c-0.143,0.271-0.417,0.44-0.716,0.44c-0.448,0-0.813-0.364-0.811-0.838
		c0-0.249-0.183-0.459-0.429-0.495c-0.094-0.013-0.186-0.031-0.274-0.059c-0.049-0.015-0.098-0.022-0.146-0.022
		c-0.138,0-0.272,0.057-0.369,0.162c-0.157,0.172-0.369,0.267-0.596,0.267c-0.448,0-0.813-0.364-0.813-0.812
		c0-0.291,0.154-0.553,0.413-0.701c0.169-0.096,0.267-0.282,0.25-0.475c-0.004-0.045-0.007-0.09-0.005-0.182
		c0-0.228-0.154-0.427-0.376-0.484c-0.359-0.092-0.61-0.414-0.61-0.782c0-0.593,0.689-1.019,1.229-0.692
		c0.164,0.1,0.375,0.096,0.537-0.012c0.161-0.108,0.245-0.3,0.216-0.492c-0.006-0.039-0.014-0.077-0.014-0.117
		c0.001-0.567,0.604-1.004,1.171-0.723c0.166,0.082,0.362,0.063,0.512-0.045c0.004-0.003,0.009-0.002,0.013-0.005
		c0.14-0.106,0.294-0.186,0.455-0.246c0.038-0.014,0.078-0.018,0.117-0.03c0.184-0.055,0.372-0.079,0.563-0.074
		c0.172,0.004,0.341,0.033,0.507,0.088c0.055,0.018,0.112,0.024,0.165,0.047c0.211,0.093,0.459,0.029,0.601-0.155
		c0.157-0.208,0.393-0.326,0.645-0.326c0.448,0,0.813,0.364,0.813,0.812c0,0.061-0.011,0.12-0.025,0.178
		c-0.019,0.08-0.048,0.159-0.093,0.235c-0.088,0.146-0.095,0.328-0.019,0.48s0.225,0.256,0.395,0.274
		c0.414,0.044,0.727,0.388,0.727,0.801c0,0.056-0.02,0.097-0.03,0.146c-0.518,0.029-1.001,0.19-1.405,0.466
		c-0.277,0.189-0.516,0.429-0.709,0.704c-0.316,0.45-0.506,0.996-0.506,1.587c0,0.26,0.047,0.506,0.115,0.745
		C17.346,41.361,17.022,41.403,16.696,41.335z M30.185,9.067c0,0.794-0.313,1.511-0.814,2.053c-0.494-0.148-1.006-0.268-1.536-0.364
		c0.098-0.099,0.199-0.195,0.284-0.313c0.405-0.566,0.628-1.338,0.628-2.172c0-0.71-0.17-1.432-0.484-2.019
		C29.387,6.696,30.185,7.787,30.185,9.067z M26.489,6.033c0.753,0,1.259,1.156,1.259,2.236c0,0.628-0.157,1.193-0.441,1.591
		c-0.307,0.429-0.752,0.646-1.323,0.646c-0.051,0-0.098,0.015-0.145,0.029c-0.135-0.006-0.267-0.017-0.404-0.02
		c0.024-0.037,0.054-0.065,0.077-0.104c0.352-0.606,0.546-1.407,0.546-2.255c0-0.854-0.192-1.581-0.515-2.123H26.489z M20.081,9.067
		c0-1.672,1.36-3.033,3.033-3.033h0.852c0.709,0,1.092,1.094,1.092,2.123c0,0.664-0.15,1.303-0.411,1.752
		c-0.219,0.378-0.502,0.589-0.836,0.65c-1.045,0.079-2.026,0.258-2.947,0.524C20.382,10.545,20.081,9.843,20.081,9.067z
		 M24.966,41.881c-0.566,0-1.281-0.148-2.059-0.455c0.101-0.288,0.167-0.592,0.167-0.914c0-1.23-0.811-2.264-1.923-2.625
		c0.015-0.092,0.03-0.184,0.03-0.278c0-0.71-0.41-1.33-1.019-1.624c0.011-0.055,0.011-0.111,0.016-0.166
		c0.006-0.06,0.018-0.119,0.018-0.178c0-0.999-0.813-1.812-1.813-1.812c-0.439,0-0.854,0.158-1.18,0.441
		c-0.219-0.064-0.445-0.092-0.671-0.101c-0.461-1.291-0.812-2.77-1-4.462c-0.074-0.665-0.089-1.324-0.069-1.971
		c4.17-0.908,8.28-4.189,9.67-7.648c1.398,3.378,5.473,6.411,9.326,7.485c0.029,0.692,0.017,1.404-0.063,2.134
		c-0.184,1.659-0.528,3.109-0.975,4.382c-0.356-0.026-0.724,0.052-1.049,0.255c-0.14,0.087-0.266,0.195-0.375,0.321
		c-0.487,0.007-0.958,0.145-1.374,0.406c-0.215,0.134-0.407,0.295-0.574,0.482c-0.406-0.061-0.821,0.022-1.176,0.244
		c-0.01,0.006-0.018,0.015-0.028,0.022c-0.792,0.518-1.031,1.578-0.528,2.385c0.056,0.089,0.119,0.172,0.191,0.25
		c-0.338,0.549-0.353,1.256,0.007,1.83c0.056,0.09,0.124,0.172,0.195,0.25C27.303,41.479,25.926,41.881,24.966,41.881z"/>
</g>
</svg>
