<?xml version="1.0" encoding="utf-8"?>
<!-- Generator: Adobe Illustrator 21.0.0, SVG Export Plug-In . SVG Version: 6.00 Build 0)  -->
<svg version="1.1" id="圖層_1" xmlns="http://www.w3.org/2000/svg" xmlns:xlink="http://www.w3.org/1999/xlink" x="0px" y="0px"
	 viewBox="0 0 24 24" style="enable-background:new 0 0 24 24;" xml:space="preserve">
<style type="text/css">
	.st0{fill:#C6A869;}
	.st1{fill:#212022;}
	.st2{fill:#FFFFFF;}
	.st3{fill:none;stroke:#C6A869;stroke-miterlimit:10;}
	.st4{fill:#A0A0A0;}
	.st5{fill:#7B7B7B;}
</style>
<path id="certificate-2_2_" class="st0" d="M23.873,9.81C23.96,9.559,24,9.301,24,9.047c0-0.77-0.38-1.514-1.055-1.981
	c-2.153-1.492-1.868-1.117-2.679-3.543c-0.34-1.013-1.319-1.697-2.424-1.697c-0.002,0-0.005,0-0.007,0
	c-2.653,0.009-2.193,0.151-4.334-1.354C13.055,0.157,12.527,0.001,12,0.001s-1.055,0.157-1.502,0.471
	C8.342,1.987,8.813,1.834,6.164,1.825c-0.003,0-0.005,0-0.007,0c-1.104,0-2.084,0.685-2.422,1.697
	C2.923,5.954,3.201,5.577,1.057,7.065C0.38,7.534,0,8.277,0,9.048C0,9.302,0.042,9.559,0.127,9.81c0.831,2.428,0.829,1.962,0,4.38
	C0.042,14.441,0,14.698,0,14.953c0,0.77,0.38,1.514,1.057,1.983c2.146,1.49,1.868,1.113,2.679,3.543
	c0.338,1.013,1.317,1.698,2.422,1.698c0.002,0,0.005,0,0.007,0c2.653-0.01,2.193-0.153,4.334,1.352C10.945,23.842,11.473,24,12,24
	s1.055-0.157,1.502-0.471c2.141-1.505,1.679-1.362,4.334-1.352c0.003,0,0.005,0,0.007,0c1.104,0,2.084-0.686,2.424-1.698
	c0.811-2.426,0.525-2.051,2.679-3.543C23.62,16.467,24,15.723,24,14.953c0-0.254-0.04-0.512-0.127-0.763
	C23.042,11.762,23.046,12.228,23.873,9.81z M12,20.5c-4.694,0-8.5-3.806-8.5-8.5S7.306,3.5,12,3.5s8.5,3.806,8.5,8.5
	S16.694,20.5,12,20.5z M10.75,15.958L7,12.322l1.549-1.548l2.201,2.088l4.701-4.819L17,9.59L10.75,15.958z"/>
</svg>
