<?xml version="1.0" encoding="utf-8"?>
<!-- Generator: Adobe Illustrator 21.0.0, SVG Export Plug-In . SVG Version: 6.00 Build 0)  -->
<svg version="1.1" id="圖層_1" xmlns="http://www.w3.org/2000/svg" xmlns:xlink="http://www.w3.org/1999/xlink" x="0px" y="0px"
	 viewBox="0 0 50 50" style="enable-background:new 0 0 50 50;" xml:space="preserve">
<style type="text/css">
	.st0{fill:#FFFFFF;}
	.st1{fill:#C6A869;}
	.st2{fill:#7B7B7B;}
</style>
<g>
	<path class="st0" d="M25,0L25,0C11.193,0,0,11.193,0,25v0c0,13.807,11.193,25,25,25h0c13.807,0,25-11.193,25-25v0
		C50,11.193,38.807,0,25,0L25,0z"/>
	<path class="st1" d="M28.782,18.81h-0.245v-4.17c0-2.039-1.658-3.698-3.697-3.698s-3.698,1.659-3.698,3.698v4.17h-0.245
		c-3.032,0-5.5,2.467-5.5,5.5v13.315c0,3.033,2.468,5.5,5.5,5.5h7.886c3.032,0,5.5-2.467,5.5-5.5V24.31
		C34.282,21.277,31.815,18.81,28.782,18.81z M33.282,37.625c0,2.481-2.019,4.5-4.5,4.5h-7.886c-2.481,0-4.5-2.019-4.5-4.5V24.31
		c0-2.481,2.019-4.5,4.5-4.5h0.245h7.396h0.245c2.481,0,4.5,2.019,4.5,4.5V37.625z M22.142,14.64c0-1.487,1.21-2.698,2.698-2.698
		c1.487,0,2.697,1.21,2.697,2.698v4.17h-5.396V14.64z"/>
	<path class="st1" d="M19.996,10.552c0.151,0,0.302-0.069,0.4-0.201c1.199-1.603,3.23-1.801,5.195-1.993
		c1.062-0.104,2.063-0.202,2.932-0.513c0.26-0.093,0.395-0.379,0.302-0.64c-0.094-0.259-0.378-0.395-0.64-0.302
		c-0.751,0.27-1.693,0.361-2.691,0.459c-2.078,0.203-4.435,0.433-5.898,2.39c-0.165,0.221-0.12,0.534,0.101,0.7
		C19.786,10.52,19.892,10.552,19.996,10.552z"/>
	<path class="st2" d="M16.275,12.544c1.048,0,1.9-0.853,1.9-1.901c0-1.048-0.853-1.9-1.9-1.9c-1.049,0-1.901,0.853-1.901,1.9
		C14.373,11.691,15.226,12.544,16.275,12.544z M16.275,9.743c0.496,0,0.9,0.404,0.9,0.9s-0.404,0.901-0.9,0.901
		c-0.497,0-0.901-0.404-0.901-0.901S15.777,9.743,16.275,9.743z"/>
	<path class="st2" d="M13.473,13.178c-1.434,0-2.601,1.167-2.601,2.601s1.167,2.601,2.601,2.601c1.435,0,2.602-1.167,2.602-2.601
		S14.907,13.178,13.473,13.178z M13.473,17.38c-0.883,0-1.601-0.718-1.601-1.601c0-0.882,0.718-1.601,1.601-1.601
		s1.602,0.718,1.602,1.601C15.074,16.662,14.356,17.38,13.473,17.38z"/>
</g>
</svg>
