<?xml version="1.0" encoding="utf-8"?>
<!-- Generator: Adobe Illustrator 21.0.0, SVG Export Plug-In . SVG Version: 6.00 Build 0)  -->
<svg version="1.1" id="圖層_1" xmlns="http://www.w3.org/2000/svg" xmlns:xlink="http://www.w3.org/1999/xlink" x="0px" y="0px"
	 viewBox="0 0 100 100" style="enable-background:new 0 0 100 100;" xml:space="preserve">
<style type="text/css">
	.st0{fill:#C6A869;}
	.st1{fill:#7B7B7B;}
</style>
<g>
	<path class="st0" d="M50,2c26.467,0,48,21.533,48,48c0,26.467-21.533,48-48,48S2,76.467,2,50C2,23.533,23.533,2,50,2 M50,0L50,0
		C22.386,0,0,22.386,0,50v0c0,27.614,22.386,50,50,50h0c27.614,0,50-22.386,50-50v0C100,22.386,77.615,0,50,0L50,0z"/>
	<path class="st1" d="M57.565,37.62h-0.49v-8.341c0-4.078-3.316-7.396-7.395-7.396s-7.396,3.317-7.396,7.396v8.341h-0.49
		c-6.064,0-11,4.935-11,11v26.63c0,6.065,4.936,11,11,11h15.771c6.064,0,11-4.935,11-11V48.62
		C68.565,42.555,63.629,37.62,57.565,37.62z M66.565,75.25c0,4.963-4.037,9-9,9H41.793c-4.963,0-9-4.037-9-9V48.62
		c0-4.963,4.037-9,9-9h0.49h14.791h0.49c4.963,0,9,4.037,9,9V75.25z M44.283,29.279c0-2.975,2.42-5.396,5.396-5.396
		c2.975,0,5.395,2.421,5.395,5.396v8.341H44.283V29.279z"/>
	<path class="st1" d="M39.992,21.104c0.303,0,0.604-0.139,0.801-0.401c2.398-3.206,6.461-3.603,10.391-3.986
		c2.123-0.207,4.127-0.403,5.863-1.025c0.52-0.187,0.789-0.759,0.604-1.279c-0.188-0.519-0.756-0.79-1.279-0.604
		c-1.502,0.539-3.387,0.723-5.383,0.918c-4.156,0.405-8.869,0.865-11.797,4.779c-0.33,0.441-0.24,1.068,0.201,1.399
		C39.573,21.04,39.783,21.104,39.992,21.104z"/>
	<path class="st1" d="M32.549,25.088c2.096,0,3.801-1.705,3.801-3.802c0-2.096-1.705-3.801-3.801-3.801
		c-2.098,0-3.803,1.705-3.803,3.801C28.746,23.383,30.451,25.088,32.549,25.088z M32.549,19.485c0.992,0,1.801,0.808,1.801,1.801
		s-0.809,1.802-1.801,1.802c-0.994,0-1.803-0.809-1.803-1.802S31.555,19.485,32.549,19.485z"/>
	<path class="st1" d="M26.946,26.356c-2.867,0-5.201,2.333-5.201,5.201s2.334,5.202,5.201,5.202c2.869,0,5.203-2.334,5.203-5.202
		S29.815,26.356,26.946,26.356z M26.946,34.76c-1.766,0-3.201-1.437-3.201-3.202c0-1.765,1.436-3.201,3.201-3.201
		s3.203,1.437,3.203,3.201C30.149,33.323,28.711,34.76,26.946,34.76z"/>
</g>
</svg>
