<?xml version="1.0" encoding="utf-8"?>
<!-- Generator: Adobe Illustrator 21.0.0, SVG Export Plug-In . SVG Version: 6.00 Build 0)  -->
<svg version="1.1" id="圖層_1" xmlns="http://www.w3.org/2000/svg" xmlns:xlink="http://www.w3.org/1999/xlink" x="0px" y="0px"
	 viewBox="0 0 50 50" style="enable-background:new 0 0 50 50;" xml:space="preserve">
<style type="text/css">
	.st0{fill:#FFFFFF;}
	.st1{fill:#C6A869;}
	.st2{fill:#7B7B7B;}
</style>
<g>
	<path class="st0" d="M25,0C11.193,0,0,11.193,0,25v0c0,13.807,11.193,25,25,25s25-11.193,25-25v0C50,11.193,38.807,0,25,0L25,0z"/>
	<path class="st1" d="M32.479,43.414c-5.476,0.001-11.655-6.821-15.47-14.624c-4.058-8.301-5.6-18.009,0.104-20.982l1.476-0.728
		c1.19-0.588,2.649-0.104,3.254,1.076l3.502,6.837c0.301,0.587,0.352,1.255,0.145,1.881c-0.208,0.626-0.647,1.131-1.239,1.422
		l-1.375,0.677c-1.127,0.605-0.616,3.842,1.18,7.361c1.813,3.555,4.151,5.894,5.342,5.321c0.095-0.043,0.733-0.356,1.41-0.688
		c1.182-0.58,2.637-0.101,3.243,1.068l2.39,4.503c0.13,0.244,0.037,0.546-0.207,0.676c-0.241,0.13-0.546,0.038-0.676-0.207
		L33.163,32.5c-0.361-0.695-1.219-0.977-1.918-0.635c-0.703,0.345-1.368,0.67-1.432,0.698c-2.04,0.993-4.818-2.183-6.651-5.774
		c-1.683-3.298-2.887-7.557-0.745-8.705l1.391-0.685c0.349-0.172,0.608-0.471,0.731-0.84c0.122-0.37,0.092-0.764-0.086-1.11
		l-3.502-6.837c-0.355-0.697-1.22-0.983-1.92-0.636l-1.464,0.722c-5.071,2.644-3.381,12.042,0.34,19.653
		c4.219,8.63,11.328,16.07,16.744,13.594c0.078-0.036,0.712-0.347,1.393-0.68c0.244-0.12,0.547-0.019,0.669,0.229
		c0.121,0.248,0.019,0.548-0.229,0.669c-0.688,0.337-1.332,0.652-1.414,0.69C34.233,43.235,33.365,43.414,32.479,43.414z"/>
</g>
</svg>
