<?xml version="1.0" encoding="utf-8"?>
<!-- Generator: Adobe Illustrator 21.0.0, SVG Export Plug-In . SVG Version: 6.00 Build 0)  -->
<svg version="1.1" id="圖層_1" xmlns="http://www.w3.org/2000/svg" xmlns:xlink="http://www.w3.org/1999/xlink" x="0px" y="0px"
	 viewBox="0 0 40 40" style="enable-background:new 0 0 40 40;" xml:space="preserve">
<style type="text/css">
	.st0{fill:#333333;}
</style>
<g>
	<path id="facebook-4_2_" class="st0" d="M20,3.2c9.263,0,16.8,7.536,16.8,16.8S29.263,36.8,20,36.8S3.2,29.264,3.2,20
		S10.737,3.2,20,3.2 M20,0C8.933,0,0,8.933,0,20s8.933,20,20,20s20-8.933,20-20S31.067,0,20,0L20,0z"/>
	<path class="st0" d="M24.32,14.545c0,0-1.2,0-1.855,0c-0.764,0-0.873,0.327-0.873,1.091c0,0.655,0,1.636,0,1.636h2.727L23.993,20
		h-2.4v9.6h-4.145V20H14.72v-2.727h2.727c0,0,0-1.091,0-3.164c0-2.4,1.309-3.709,4.145-3.709c0.436,0,2.727,0,2.727,0V14.545z"/>
</g>
</svg>
