<?xml version="1.0" encoding="utf-8"?>
<!-- Generator: Adobe Illustrator 21.0.0, SVG Export Plug-In . SVG Version: 6.00 Build 0)  -->
<svg version="1.1" id="圖層_1" xmlns="http://www.w3.org/2000/svg" xmlns:xlink="http://www.w3.org/1999/xlink" x="0px" y="0px"
	 viewBox="0 0 40 40" style="enable-background:new 0 0 40 40;" xml:space="preserve">
<style type="text/css">
	.st0{fill:#C6A869;}
	.st1{fill:#333333;}
	.st2{fill:#212022;}
	.st3{fill:#FFFFFF;}
	.st4{fill:none;stroke:#C6A869;stroke-miterlimit:10;}
	.st5{fill:#A0A0A0;}
	.st6{fill:#7B7B7B;}
</style>
<path id="instagram-11_2_" class="st1" d="M20,3.604c5.34,0,5.973,0.02,8.083,0.116c5.42,0.247,7.951,2.818,8.198,8.198
	c0.096,2.109,0.115,2.741,0.115,8.081c0,5.342-0.019,5.973-0.115,8.081c-0.248,5.376-2.774,7.953-8.198,8.2
	c-2.109,0.096-2.741,0.116-8.083,0.116c-5.34,0-5.973-0.02-8.081-0.116c-5.435-0.249-7.952-2.83-8.198-8.2
	C3.625,25.973,3.603,25.342,3.603,20c0-5.34,0.021-5.972,0.117-8.081c0.247-5.379,2.773-7.952,8.198-8.198
	C14.028,3.625,14.66,3.604,20,3.604z M20,0c-5.431,0-6.112,0.024-8.246,0.12C4.49,0.453,0.454,4.483,0.12,11.755
	C0.023,13.887,0,14.569,0,20c0,5.433,0.023,6.113,0.12,8.247c0.334,7.264,4.363,11.299,11.634,11.633C13.888,39.977,14.569,40,20,40
	c5.431,0,6.113-0.023,8.247-0.12c7.256-0.332,11.304-4.362,11.632-11.633C39.977,26.113,40,25.433,40,20
	c0-5.431-0.023-6.113-0.121-8.245c-0.327-7.256-4.362-11.3-11.632-11.634C26.113,0.024,25.431,0,20,0z M20,9.73
	C14.328,9.73,9.73,14.329,9.73,20c0,5.672,4.598,10.27,10.27,10.27c5.672,0,10.27-4.598,10.27-10.27
	C30.27,14.329,25.672,9.73,20,9.73z M20,26.667c-3.682,0-6.667-2.983-6.667-6.667c0-3.682,2.985-6.667,6.667-6.667
	s6.667,2.985,6.667,6.667C26.667,23.683,23.682,26.667,20,26.667z M30.677,6.925c-1.326,0-2.401,1.074-2.401,2.4
	s1.074,2.4,2.401,2.4c1.325,0,2.399-1.074,2.399-2.4S32.002,6.925,30.677,6.925z"/>
</svg>
