<?xml version="1.0" encoding="utf-8"?>
<!-- Generator: Adobe Illustrator 21.0.0, SVG Export Plug-In . SVG Version: 6.00 Build 0)  -->
<svg version="1.1" id="圖層_1" xmlns="http://www.w3.org/2000/svg" xmlns:xlink="http://www.w3.org/1999/xlink" x="0px" y="0px"
	 viewBox="0 0 80 38" style="enable-background:new 0 0 80 38;" xml:space="preserve">
<style type="text/css">
	.st0{fill:#212022;}
</style>
<g>
	<path class="st0" d="M22.2,0.4V29h-6.7V9.1L10.9,29H7.1L2.3,9.4V29H0V0.4h7l4.1,17.3l4.1-17.3H22.2z"/>
	<path class="st0" d="M38,29.3c-0.2-3.5-0.4-5.3-1.3-7.1c-0.7-1.4-1.7-2.5-3.7-3.5c3.5-1.5,5.8-5.5,5.8-8.7c0-3.6-0.9-5.3-2.7-7.1
		c-1.8-1.8-4.2-2.6-7.3-2.6h-3.8v3.4h1.6c3,0,4.5,2.1,4.5,6.4c0,4.3-1.5,6.4-4.5,6.4h-1.6v3.1h1.3c2.5,0,3.8,2.1,3.8,6.4l0,2.8
		l0,2.2c0.2,3.6,0.9,5.4,1.2,6.5h9.8C40.4,36.9,38.3,35,38,29.3z"/>
	<path class="st0" d="M56.7,0.4v2.9h-8.5v8.7h7.2v2.9h-7.2v11.4h10V29H41.3V0.4H56.7z"/>
	<path class="st0" d="M59.6,29V0.4h9.9c7,0,10.5,4.8,10.5,14.3C80,24.3,76.4,29,69.1,29H59.6z M66.5,26.6h1.8c1.7,0,2.8-0.9,3.5-2.6
		c0.6-1.7,1-4.8,1-9.4c0-4.5-0.3-7.6-0.9-9.4c-0.6-1.7-1.8-2.6-3.5-2.6h-1.8L66.5,26.6L66.5,26.6z"/>
</g>
</svg>
