<?xml version="1.0" encoding="utf-8"?>
<!-- Generator: Adobe Illustrator 21.0.0, SVG Export Plug-In . SVG Version: 6.00 Build 0)  -->
<svg version="1.1" id="圖層_1" xmlns="http://www.w3.org/2000/svg" xmlns:xlink="http://www.w3.org/1999/xlink" x="0px" y="0px"
	 viewBox="0 0 80 38" style="enable-background:new 0 0 80 38;" xml:space="preserve">
<style type="text/css">
	.st0{fill:#FFFFFF;}
</style>
<g>
	<path class="st0" d="M22.239,0.382v28.637H15.58V9.087l-4.64,19.932H7.082L2.318,9.42v19.599H0V0.382h7.017l4.079,17.285
		L15.16,0.382H22.239z"/>
	<path class="st0" d="M37.969,29.318c-0.228-3.506-0.449-5.25-1.347-7.128c-0.672-1.398-1.696-2.451-3.693-3.466
		c3.489-1.498,5.781-5.451,5.801-8.653c0.01-3.564-0.909-5.299-2.73-7.059c-1.812-1.758-4.24-2.629-7.278-2.629h-3.794v3.439h1.583
		c2.985,0,4.482,2.136,4.482,6.406c0,4.278-1.497,6.415-4.482,6.415h-1.583v3.075h1.348c2.518,0,3.782,2.146,3.782,6.44l0.039,2.788
		l0.039,2.209c0.166,3.613,0.887,5.382,1.223,6.464h9.756C40.442,36.898,38.332,34.993,37.969,29.318z"/>
	<path class="st0" d="M56.725,0.382V3.25h-8.529v8.667h7.167v2.875h-7.167v11.353h9.975v2.873H41.287V0.382H56.725z"/>
	<path class="st0" d="M59.614,29.018V0.382h9.881C76.499,0.382,80,5.167,80,14.726c0,9.526-3.622,14.292-10.896,14.292H59.614z
		 M66.523,26.646h1.823c1.655,0,2.81-0.861,3.452-2.591c0.635-1.731,0.952-4.843,0.952-9.367c0-4.517-0.317-7.634-0.948-9.358
		c-0.635-1.717-1.791-2.578-3.457-2.578h-1.823V26.646z"/>
</g>
</svg>
