<?xml version="1.0" encoding="utf-8"?>
<!-- Generator: Adobe Illustrator 21.0.0, SVG Export Plug-In . SVG Version: 6.00 Build 0)  -->
<svg version="1.1" id="圖層_1" xmlns="http://www.w3.org/2000/svg" xmlns:xlink="http://www.w3.org/1999/xlink" x="0px" y="0px"
	 viewBox="0 0 100 100" style="enable-background:new 0 0 100 100;" xml:space="preserve">
<style type="text/css">
	.st0{fill:#C6A869;}
	.st1{fill:#7B7B7B;}
</style>
<g>
	<path class="st0" d="M50,2c26.467,0,48,21.533,48,48c0,26.467-21.533,48-48,48S2,76.467,2,50C2,23.533,23.533,2,50,2 M50,0
		C22.386,0,0,22.386,0,50v0c0,27.614,22.386,50,50,50s50-22.386,50-50v0C100,22.386,77.614,0,50,0L50,0z"/>
	<path class="st1" d="M39.344,72.299c0.644,0.399,1.311,0.761,2,1.087c2.613,1.235,5.521,1.947,8.598,1.947s5.984-0.711,8.598-1.947
		c0.689-0.326,1.356-0.688,2-1.087c5.757-3.565,9.613-9.921,9.613-17.176V38.662v-0.194c0-6.904-5.617-12.521-12.521-12.521H42.252
		c-6.904,0-12.521,5.616-12.521,12.521v2.379v14.276C29.731,62.378,33.587,68.734,39.344,72.299z M31.731,40.739v-2.271
		c0-5.801,4.721-10.521,10.521-10.521h15.379c5.801,0,10.521,4.72,10.521,10.521v0.302v16.353c0,6.656-3.601,12.472-8.945,15.648
		c-1.497,0.89-3.128,1.567-4.859,2c-1.414,0.353-2.885,0.562-4.406,0.562s-2.992-0.208-4.406-0.562c-1.731-0.433-3.363-1.11-4.859-2
		c-5.345-3.177-8.945-8.993-8.945-15.648V40.739z"/>
	<path class="st1" d="M49.121,44.011c0-1.588-0.615-3.024-1.597-4.126c-1.142-1.281-2.786-2.106-4.633-2.106h-5.852
		c-1.766,0-3.241,1.226-3.646,2.87c-0.071,0.289-0.12,0.586-0.12,0.897v1.876c0,4.532,3.686,8.219,8.217,8.219
		C45.698,51.641,49.121,48.218,49.121,44.011z M35.274,41.546c0-0.387,0.151-0.727,0.363-1.018c0.321-0.442,0.817-0.748,1.403-0.748
		h5.852c0.517,0,1.006,0.106,1.464,0.277c1.61,0.599,2.766,2.138,2.766,3.954c0,3.104-2.525,5.63-5.631,5.63
		c-3.428,0-6.217-2.79-6.217-6.219V41.546z"/>
	<path class="st1" d="M41.198,45.979c0.771,0,2.686-0.119,3.783-1.217c0.391-0.391,0.391-1.024,0-1.414
		c-0.391-0.391-1.023-0.391-1.414,0c-0.305,0.304-1.174,0.631-2.369,0.631c-1.197,0-2.066-0.327-2.371-0.631
		c-0.391-0.391-1.023-0.391-1.414,0c-0.391,0.39-0.391,1.023,0,1.414C38.51,45.86,40.424,45.979,41.198,45.979z"/>
	<path class="st1" d="M58.028,51.641c4.531,0,8.219-3.687,8.219-8.219v-1.876c0-1.017-0.409-1.937-1.065-2.615
		c-0.685-0.707-1.64-1.151-2.7-1.151h-5.852c-1.729,0-3.294,0.711-4.424,1.853c-1.115,1.127-1.806,2.673-1.806,4.379
		C50.399,48.218,53.821,51.641,58.028,51.641z M56.629,39.779h5.852c0.973,0,1.766,0.793,1.766,1.767v1.876
		c0,3.429-2.789,6.219-6.219,6.219c-3.104,0-5.629-2.525-5.629-5.63C52.399,41.678,54.297,39.779,56.629,39.779z"/>
	<path class="st1" d="M58.323,45.979c0.771,0,2.686-0.119,3.783-1.217c0.391-0.391,0.391-1.024,0-1.414
		c-0.391-0.391-1.023-0.391-1.414,0c-0.305,0.304-1.174,0.631-2.369,0.631c-1.197,0-2.066-0.327-2.371-0.631
		c-0.391-0.391-1.023-0.391-1.414,0c-0.391,0.39-0.391,1.023,0,1.414C55.635,45.86,57.549,45.979,58.323,45.979z"/>
	<path class="st1" d="M55.594,57.548H44.289c-2.027,0-3.678,1.649-3.678,3.677c0,4.099,3.334,7.434,7.434,7.434h3.793
		c4.1,0,7.434-3.335,7.434-7.434C59.272,59.197,57.621,57.548,55.594,57.548z M51.838,66.658h-3.793
		c-2.996,0-5.434-2.438-5.434-5.434c0-0.925,0.752-1.677,1.678-1.677h11.305c0.926,0,1.678,0.752,1.678,1.677
		C57.272,64.221,54.834,66.658,51.838,66.658z"/>
	<path class="st1" d="M52.676,61.195c-0.305,0.304-1.174,0.631-2.369,0.631c-1.197,0-2.066-0.327-2.371-0.631
		c-0.391-0.391-1.023-0.391-1.414,0c-0.391,0.39-0.391,1.023,0,1.414c1.098,1.098,3.012,1.217,3.785,1.217
		c0.771,0,2.686-0.119,3.783-1.217c0.391-0.391,0.391-1.024,0-1.414C53.699,60.805,53.067,60.805,52.676,61.195z"/>
	<path class="st1" d="M63.016,18.366c2.611,0.776,4.383,1.958,5.268,3.511c0.184,0.324,0.521,0.506,0.869,0.506
		c0.168,0,0.338-0.042,0.494-0.131c0.48-0.273,0.648-0.884,0.375-1.363c-1.148-2.018-3.313-3.512-6.436-4.44
		c-0.535-0.151-1.088,0.145-1.244,0.674S62.487,18.208,63.016,18.366z"/>
	<path class="st1" d="M69.754,12.701c-0.438-0.331-1.064-0.246-1.4,0.197c-0.332,0.44-0.244,1.067,0.197,1.4
		c12.641,9.528,8.905,25.586,6.084,33.339v-8.894v-0.271c0-0.071-0.026-0.134-0.041-0.201c-0.385-8.925-11.677-18.934-26.972-20.896
		c3.188-0.753,6.528-1,9.893-0.63c0.527,0.052,1.041-0.336,1.104-0.885c0.061-0.549-0.336-1.043-0.885-1.104
		c-5.354-0.585-10.677,0.223-15.454,2.248c-0.008,0-0.015-0.001-0.023-0.001c-0.307,0-0.571,0.145-0.754,0.362
		c-2.67,1.223-5.166,2.812-7.369,4.786c-5.513,4.94-8.612,11.542-8.842,18.661c-0.017,0.073-0.044,0.143-0.044,0.221v0.618v7.279
		c-1.913-4.312-3.387-11.554-2.414-18.382c0.635-4.463,2.615-10.564,8.436-14.286c0.465-0.298,0.602-0.916,0.303-1.382
		c-0.297-0.467-0.916-0.601-1.381-0.304c-5.113,3.27-8.342,8.695-9.338,15.689c-1.354,9.503,1.685,19.205,4.412,22.656
		c0.131,10.428,5.855,19.404,14.079,23.64V86.5c0,0.553,0.447,1,1,1s1-0.447,1-1v-9.022c2.682,1.079,5.571,1.698,8.598,1.698
		s5.916-0.619,8.598-1.698V86.5c0,0.553,0.447,1,1,1s1-0.447,1-1v-9.937c8.251-4.25,13.989-13.27,14.083-23.741
		C75.811,50.426,87.327,25.946,69.754,12.701z M35.469,23.643c2.144-1.921,4.578-3.465,7.192-4.622
		c16.777,0.166,29.751,10.502,29.955,19.508c0.001,0.071,0.019,0.144,0.019,0.215v13.817c0,9.421-4.91,17.613-12.096,21.749
		c-0.649,0.373-1.316,0.713-2,1.018c-2.654,1.184-5.555,1.847-8.598,1.847s-5.943-0.663-8.598-1.847
		c-0.684-0.305-1.351-0.645-2-1.018c-7.186-4.136-12.096-12.328-12.096-21.749V41.653c0-0.227,0.03-0.448,0.036-0.674
		C27.47,34.373,30.344,28.236,35.469,23.643z"/>
	<path class="st1" d="M74.276,27.857c0.52-0.041,1-0.446,1-0.998c0-0.277-0.045-2.745-1.621-4.13
		c-0.414-0.364-1.043-0.324-1.412,0.091c-0.363,0.415-0.322,1.047,0.092,1.411c0.764,0.671,0.938,2.127,0.941,2.631
		C73.28,27.412,73.727,27.857,74.276,27.857z"/>
</g>
</svg>
