<?xml version="1.0" encoding="utf-8"?>
<!-- Generator: Adobe Illustrator 21.0.0, SVG Export Plug-In . SVG Version: 6.00 Build 0)  -->
<svg version="1.1" id="圖層_1" xmlns="http://www.w3.org/2000/svg" xmlns:xlink="http://www.w3.org/1999/xlink" x="0px" y="0px"
	 viewBox="0 0 50 50" style="enable-background:new 0 0 50 50;" xml:space="preserve">
<style type="text/css">
	.st0{fill:#FFFFFF;}
	.st1{fill:#C6A869;}
	.st2{fill:#7B7B7B;}
</style>
<g>
	<path class="st0" d="M25,0C11.193,0,0,11.193,0,25v0c0,13.807,11.193,25,25,25s25-11.193,25-25v0C50,11.193,38.807,0,25,0L25,0z"/>
	<path class="st1" d="M19.672,36.15c0.322,0.199,0.655,0.381,1,0.544c1.307,0.618,2.76,0.973,4.299,0.973s2.992-0.356,4.299-0.973
		c0.345-0.163,0.678-0.344,1-0.544c2.879-1.783,4.807-4.961,4.807-8.588v-8.231v-0.097c0-3.452-2.809-6.26-6.261-6.26h-7.689
		c-3.452,0-6.261,2.808-6.261,6.26v1.19v7.138C14.865,31.189,16.793,34.367,19.672,36.15z M15.865,20.369v-1.135
		c0-2.9,2.36-5.26,5.261-5.26h7.689c2.9,0,5.261,2.36,5.261,5.26v0.151v8.177c0,3.328-1.8,6.236-4.473,7.824
		c-0.748,0.445-1.564,0.784-2.43,1c-0.707,0.177-1.442,0.281-2.203,0.281s-1.496-0.104-2.203-0.281c-0.866-0.216-1.681-0.555-2.43-1
		c-2.672-1.588-4.473-4.496-4.473-7.824V20.369z"/>
	<path class="st1" d="M24.561,22.005c0-0.794-0.308-1.512-0.799-2.063c-0.571-0.641-1.393-1.053-2.317-1.053H18.52
		c-0.883,0-1.62,0.613-1.823,1.435c-0.036,0.144-0.06,0.293-0.06,0.449v0.938c0,2.266,1.843,4.109,4.108,4.109
		C22.849,25.82,24.561,24.109,24.561,22.005z M17.637,20.773c0-0.194,0.075-0.363,0.181-0.509c0.161-0.221,0.408-0.374,0.701-0.374
		h2.926c0.258,0,0.503,0.053,0.732,0.138c0.805,0.299,1.383,1.069,1.383,1.977c0,1.552-1.263,2.815-2.815,2.815
		c-1.714,0-3.108-1.395-3.108-3.109V20.773z"/>
	<path class="st2" d="M20.599,22.99c0.386,0,1.343-0.06,1.892-0.608c0.195-0.195,0.195-0.512,0-0.707
		c-0.195-0.195-0.512-0.195-0.707,0c-0.152,0.152-0.587,0.315-1.185,0.315c-0.599,0-1.033-0.164-1.186-0.315
		c-0.195-0.195-0.512-0.195-0.707,0c-0.195,0.195-0.195,0.512,0,0.707C19.255,22.93,20.212,22.99,20.599,22.99z"/>
	<path class="st1" d="M29.014,25.82c2.266,0,4.109-1.843,4.109-4.109v-0.938c0-0.508-0.204-0.969-0.533-1.308
		c-0.343-0.354-0.82-0.576-1.35-0.576h-2.926c-0.865,0-1.647,0.355-2.212,0.926c-0.557,0.563-0.903,1.336-0.903,2.189
		C25.199,24.109,26.91,25.82,29.014,25.82z M28.315,19.89h2.926c0.486,0,0.883,0.396,0.883,0.883v0.938
		c0,1.714-1.395,3.109-3.109,3.109c-1.552,0-2.814-1.263-2.814-2.815C26.199,20.839,27.149,19.89,28.315,19.89z"/>
	<path class="st2" d="M29.161,22.99c0.386,0,1.343-0.06,1.892-0.608c0.195-0.195,0.195-0.512,0-0.707
		c-0.195-0.195-0.512-0.195-0.707,0c-0.152,0.152-0.587,0.315-1.185,0.315c-0.599,0-1.033-0.164-1.186-0.315
		c-0.195-0.195-0.512-0.195-0.707,0c-0.195,0.195-0.195,0.512,0,0.707C27.818,22.93,28.775,22.99,29.161,22.99z"/>
	<path class="st1" d="M27.797,28.774h-5.652c-1.014,0-1.839,0.825-1.839,1.838c0,2.049,1.667,3.717,3.717,3.717h1.896
		c2.05,0,3.717-1.667,3.717-3.717C29.636,29.599,28.811,28.774,27.797,28.774z M25.919,33.329h-1.896
		c-1.498,0-2.717-1.219-2.717-2.717c0-0.462,0.376-0.838,0.839-0.838h5.652c0.463,0,0.839,0.376,0.839,0.838
		C28.636,32.11,27.417,33.329,25.919,33.329z"/>
	<path class="st2" d="M26.338,30.598c-0.152,0.152-0.587,0.315-1.185,0.315c-0.599,0-1.033-0.164-1.186-0.315
		c-0.195-0.195-0.512-0.195-0.707,0c-0.195,0.195-0.195,0.512,0,0.707c0.549,0.549,1.506,0.608,1.893,0.608
		c0.386,0,1.343-0.06,1.892-0.608c0.195-0.195,0.195-0.512,0-0.707C26.85,30.402,26.533,30.402,26.338,30.598z"/>
	<path class="st2" d="M31.508,9.183c1.306,0.388,2.191,0.979,2.634,1.755c0.092,0.162,0.261,0.253,0.435,0.253
		c0.084,0,0.169-0.021,0.247-0.065c0.24-0.137,0.324-0.442,0.188-0.682c-0.574-1.009-1.656-1.756-3.218-2.22
		c-0.268-0.076-0.544,0.072-0.622,0.337S31.243,9.104,31.508,9.183z"/>
	<path class="st1" d="M34.877,6.351c-0.219-0.166-0.532-0.123-0.7,0.099c-0.166,0.22-0.122,0.534,0.099,0.7
		c6.32,4.764,4.453,12.793,3.042,16.67v-4.447v-0.135c0-0.036-0.013-0.067-0.02-0.101c-0.193-4.463-5.839-9.467-13.486-10.448
		c1.594-0.377,3.264-0.5,4.947-0.315c0.264,0.026,0.521-0.168,0.552-0.442c0.03-0.274-0.168-0.521-0.442-0.552
		c-2.677-0.292-5.339,0.112-7.727,1.124c-0.004,0-0.008,0-0.011,0c-0.153,0-0.285,0.073-0.377,0.181
		c-1.335,0.611-2.583,1.406-3.685,2.393c-2.756,2.47-4.306,5.771-4.421,9.33c-0.009,0.037-0.022,0.071-0.022,0.111v0.309v3.639
		c-0.957-2.156-1.694-5.777-1.207-9.191c0.317-2.231,1.308-5.282,4.218-7.143c0.232-0.149,0.301-0.458,0.151-0.691
		c-0.148-0.233-0.458-0.3-0.69-0.152c-2.557,1.635-4.171,4.348-4.669,7.845c-0.677,4.752,0.843,9.603,2.206,11.328
		c0.065,5.214,2.927,9.702,7.039,11.82v4.968c0,0.276,0.224,0.5,0.5,0.5s0.5-0.224,0.5-0.5v-4.511
		c1.341,0.539,2.785,0.849,4.299,0.849s2.958-0.309,4.299-0.849v4.511c0,0.276,0.224,0.5,0.5,0.5s0.5-0.224,0.5-0.5v-4.968
		c4.125-2.125,6.994-6.635,7.042-11.871C37.905,25.213,43.663,12.973,34.877,6.351z M17.734,11.821
		c1.072-0.961,2.289-1.732,3.596-2.311c8.388,0.083,14.876,5.251,14.977,9.754c0.001,0.036,0.01,0.072,0.01,0.108v6.909
		c0,4.711-2.455,8.807-6.048,10.875c-0.324,0.187-0.658,0.357-1,0.509c-1.327,0.592-2.777,0.923-4.299,0.923
		s-2.972-0.332-4.299-0.923c-0.342-0.153-0.676-0.322-1-0.509c-3.593-2.068-6.048-6.164-6.048-10.875v-5.454
		c0-0.113,0.015-0.224,0.018-0.337C13.735,17.186,15.172,14.118,17.734,11.821z"/>
	<path class="st2" d="M37.138,13.929c0.26-0.021,0.5-0.223,0.5-0.499c0-0.139-0.022-1.373-0.811-2.065
		c-0.207-0.182-0.521-0.162-0.706,0.045c-0.182,0.208-0.161,0.523,0.046,0.706c0.382,0.335,0.469,1.063,0.471,1.315
		C36.64,13.706,36.863,13.929,37.138,13.929z"/>
</g>
</svg>
