<?xml version="1.0" encoding="utf-8"?>
<!-- Generator: Adobe Illustrator 21.0.0, SVG Export Plug-In . SVG Version: 6.00 Build 0)  -->
<svg version="1.1" id="圖層_1" xmlns="http://www.w3.org/2000/svg" xmlns:xlink="http://www.w3.org/1999/xlink" x="0px" y="0px"
	 viewBox="0 0 50 50" style="enable-background:new 0 0 50 50;" xml:space="preserve">
<style type="text/css">
	.st0{fill:#FFFFFF;}
	.st1{fill:#C6A869;}
	.st2{fill:#7B7B7B;}
</style>
<g>
	<path class="st0" d="M25,0C11.193,0,0,11.193,0,25v0c0,13.807,11.193,25,25,25s25-11.193,25-25v0C50,11.193,38.807,0,25,0L25,0z"/>
	<path class="st1" d="M37.129,10.157h-16.46c-2.004,0-3.635,1.631-3.635,3.635v1.224h-5.133c-0.627,0-1.138,0.51-1.138,1.138v2.654
		v17.4c0,2.004,1.631,3.635,3.635,3.635h1.254h5.017h14.265h2.195c2.004,0,3.635-1.631,3.635-3.635V13.792
		C40.764,11.788,39.133,10.157,37.129,10.157z M11.764,36.208v-17.4v-2.654c0-0.076,0.062-0.138,0.138-0.138h5.133v20.192
		c0,1.453-1.183,2.635-2.636,2.635S11.764,37.661,11.764,36.208z M39.764,36.208c0,1.453-1.182,2.635-2.635,2.635h-2.195H20.669
		h-3.781c0.629-0.594,1.034-1.409,1.114-2.321c0.017-0.05,0.032-0.102,0.032-0.158V13.792c0-1.453,1.182-2.635,2.635-2.635h16.46
		c1.453,0,2.635,1.182,2.635,2.635V36.208z"/>
	<path class="st2" d="M26.971,25.438h-5.048c-0.276,0-0.5,0.224-0.5,0.5s0.224,0.5,0.5,0.5h5.048c0.276,0,0.5-0.224,0.5-0.5
		S27.247,25.438,26.971,25.438z"/>
	<path class="st2" d="M26.971,28.466h-5.048c-0.276,0-0.5,0.224-0.5,0.5s0.224,0.5,0.5,0.5h5.048c0.276,0,0.5-0.224,0.5-0.5
		S27.247,28.466,26.971,28.466z"/>
	<path class="st2" d="M26.869,31.57h-5.103c-0.276,0-0.5,0.224-0.5,0.5s0.224,0.5,0.5,0.5h5.103c0.276,0,0.5-0.224,0.5-0.5
		S27.146,31.57,26.869,31.57z"/>
	<g>
		<path class="st1" d="M35.614,32.442H31.93c-0.827,0-1.5-0.673-1.5-1.5v-3.684c0-0.827,0.673-1.5,1.5-1.5h3.684
			c0.827,0,1.5,0.673,1.5,1.5v3.684C37.114,31.77,36.441,32.442,35.614,32.442z M31.93,26.759c-0.275,0-0.5,0.224-0.5,0.5v3.684
			c0,0.276,0.225,0.5,0.5,0.5h3.684c0.275,0,0.5-0.224,0.5-0.5v-3.684c0-0.276-0.225-0.5-0.5-0.5H31.93z"/>
	</g>
	<path class="st2" d="M25.141,21.017l-1.082-0.008l-1.723-3.049l-0.025-0.001c0.031,0.536,0.047,0.919,0.045,1.148l-0.015,1.889
		L21.58,20.99l0.03-4.014l1.074,0.008l1.722,3.02h0.019c-0.024-0.522-0.035-0.891-0.033-1.107l0.014-1.9l0.766,0.006L25.141,21.017z
		"/>
	<path class="st2" d="M28.462,21.042l-2.311-0.017l0.03-4.014l2.311,0.017l-0.005,0.697l-1.459-0.011l-0.006,0.881l1.357,0.01
		l-0.005,0.697l-1.357-0.01l-0.007,1.035l1.459,0.011L28.462,21.042z"/>
	<path class="st2" d="M33.209,21.078L32.24,21.07l-0.528-2.112c-0.02-0.075-0.053-0.231-0.1-0.467
		c-0.047-0.235-0.074-0.393-0.081-0.474c-0.01,0.099-0.039,0.258-0.085,0.476c-0.046,0.218-0.081,0.374-0.105,0.467l-0.557,2.099
		l-0.967-0.007l-0.994-4.022l0.837,0.006l0.498,2.195c0.086,0.405,0.147,0.756,0.186,1.053c0.012-0.104,0.038-0.265,0.08-0.484
		c0.041-0.218,0.079-0.388,0.114-0.508l0.601-2.244l0.805,0.006l0.568,2.253c0.024,0.101,0.055,0.255,0.092,0.463
		c0.036,0.207,0.064,0.385,0.084,0.533c0.019-0.143,0.05-0.32,0.091-0.533c0.042-0.213,0.08-0.385,0.114-0.517l0.527-2.187
		l0.837,0.006L33.209,21.078z"/>
	<path class="st2" d="M37.114,19.992c-0.003,0.362-0.136,0.647-0.399,0.854c-0.262,0.207-0.626,0.308-1.09,0.305
		c-0.428-0.003-0.806-0.086-1.135-0.25l0.006-0.79c0.27,0.123,0.498,0.209,0.686,0.261c0.186,0.051,0.358,0.076,0.513,0.077
		c0.187,0.002,0.33-0.033,0.431-0.104c0.1-0.07,0.151-0.176,0.152-0.317c0.001-0.079-0.021-0.15-0.063-0.211
		c-0.045-0.062-0.108-0.121-0.193-0.179c-0.085-0.057-0.258-0.149-0.518-0.276c-0.244-0.117-0.427-0.229-0.549-0.336
		c-0.122-0.106-0.218-0.231-0.291-0.373c-0.072-0.141-0.108-0.306-0.106-0.494c0.002-0.355,0.125-0.633,0.368-0.835
		c0.242-0.201,0.575-0.301,1-0.298c0.209,0.002,0.408,0.028,0.596,0.079c0.189,0.051,0.386,0.122,0.593,0.213l-0.279,0.659
		c-0.213-0.089-0.39-0.152-0.531-0.187c-0.138-0.036-0.276-0.055-0.411-0.056c-0.162-0.002-0.287,0.036-0.372,0.11
		c-0.087,0.075-0.131,0.172-0.132,0.293c-0.001,0.075,0.017,0.141,0.051,0.196c0.034,0.057,0.089,0.111,0.165,0.164
		c0.076,0.052,0.254,0.147,0.537,0.286c0.374,0.182,0.63,0.364,0.767,0.545C37.047,19.509,37.115,19.731,37.114,19.992z"/>
</g>
</svg>
