<?xml version="1.0" encoding="utf-8"?>
<!-- Generator: Adobe Illustrator 21.0.0, SVG Export Plug-In . SVG Version: 6.00 Build 0)  -->
<svg version="1.1" id="圖層_1" xmlns="http://www.w3.org/2000/svg" xmlns:xlink="http://www.w3.org/1999/xlink" x="0px" y="0px"
	 viewBox="0 0 100 100" style="enable-background:new 0 0 100 100;" xml:space="preserve">
<style type="text/css">
	.st0{fill:#C6A869;}
	.st1{fill:#7B7B7B;}
</style>
<g>
	<path class="st0" d="M50,2c26.467,0,48,21.533,48,48c0,26.467-21.533,48-48,48S2,76.467,2,50C2,23.533,23.533,2,50,2 M50,0
		C22.386,0,0,22.386,0,50v0c0,27.614,22.386,50,50,50s50-22.386,50-50v0C100,22.386,77.614,0,50,0L50,0z"/>
	<path class="st1" d="M74.258,20.313h-32.92c-4.008,0-7.27,3.262-7.27,7.271v2.448H23.803c-1.254,0-2.275,1.021-2.275,2.275v5.309
		v34.8c0,4.009,3.262,7.271,7.27,7.271h2.508h10.033h28.529h4.391c4.008,0,7.27-3.262,7.27-7.271V27.584
		C81.528,23.575,78.266,20.313,74.258,20.313z M23.528,72.416v-34.8v-5.309c0-0.151,0.123-0.275,0.275-0.275h10.266v40.384
		c0,2.906-2.365,5.271-5.271,5.271S23.528,75.322,23.528,72.416z M79.528,72.416c0,2.906-2.363,5.271-5.27,5.271h-4.391H41.338
		h-7.562c1.258-1.189,2.069-2.819,2.229-4.642c0.034-0.1,0.063-0.203,0.063-0.315V27.584c0-2.906,2.363-5.271,5.27-5.271h32.92
		c2.906,0,5.27,2.364,5.27,5.271V72.416z"/>
	<path class="st1" d="M53.942,50.875H43.846c-0.553,0-1,0.447-1,1s0.447,1,1,1h10.096c0.553,0,1-0.447,1-1
		S54.494,50.875,53.942,50.875z"/>
	<path class="st1" d="M53.942,56.932H43.846c-0.553,0-1,0.447-1,1s0.447,1,1,1h10.096c0.553,0,1-0.447,1-1
		S54.494,56.932,53.942,56.932z"/>
	<path class="st1" d="M53.739,63.141H43.533c-0.553,0-1,0.447-1,1s0.447,1,1,1h10.205c0.553,0,1-0.447,1-1
		S54.291,63.141,53.739,63.141z"/>
	<g>
		<path class="st1" d="M71.227,64.885H63.86c-1.654,0-3-1.346-3-3v-7.367c0-1.654,1.346-3,3-3h7.367c1.654,0,3,1.346,3,3v7.367
			C74.227,63.539,72.881,64.885,71.227,64.885z M63.86,53.518c-0.551,0-1,0.448-1,1v7.367c0,0.552,0.449,1,1,1h7.367
			c0.551,0,1-0.448,1-1v-7.367c0-0.552-0.449-1-1-1H63.86z"/>
	</g>
	<path class="st1" d="M50.283,42.035l-2.164-0.017l-3.446-6.098l-0.05-0.001c0.062,1.073,0.093,1.838,0.089,2.296l-0.029,3.777
		l-1.522-0.011l0.06-8.028l2.148,0.017l3.444,6.039h0.037c-0.048-1.044-0.071-1.782-0.066-2.214l0.027-3.8l1.533,0.012
		L50.283,42.035z"/>
	<path class="st1" d="M56.923,42.084l-4.621-0.034l0.06-8.028l4.621,0.034l-0.01,1.395l-2.918-0.022l-0.012,1.762l2.715,0.021
		l-0.01,1.395l-2.715-0.021l-0.015,2.071l2.918,0.022L56.923,42.084z"/>
	<path class="st1" d="M66.417,42.155l-1.938-0.015l-1.055-4.225c-0.039-0.151-0.106-0.462-0.199-0.934
		c-0.093-0.469-0.147-0.786-0.162-0.948c-0.021,0.198-0.079,0.516-0.17,0.952c-0.091,0.436-0.162,0.748-0.21,0.934l-1.113,4.199
		l-1.934-0.015l-1.988-8.043l1.674,0.012l0.997,4.39c0.172,0.81,0.295,1.512,0.372,2.105c0.025-0.209,0.077-0.531,0.16-0.968
		c0.081-0.436,0.158-0.776,0.228-1.017l1.203-4.488l1.61,0.012l1.136,4.505c0.048,0.203,0.11,0.51,0.185,0.925
		c0.073,0.413,0.129,0.77,0.168,1.066c0.037-0.286,0.1-0.64,0.183-1.067c0.083-0.426,0.16-0.771,0.228-1.033l1.053-4.374
		l1.674,0.012L66.417,42.155z"/>
	<path class="st1" d="M74.227,39.984c-0.006,0.725-0.272,1.294-0.798,1.707c-0.523,0.413-1.252,0.617-2.181,0.61
		c-0.856-0.006-1.612-0.172-2.27-0.501l0.012-1.581c0.54,0.245,0.997,0.419,1.373,0.521c0.372,0.102,0.717,0.153,1.026,0.155
		c0.374,0.003,0.661-0.065,0.862-0.208c0.199-0.14,0.301-0.352,0.303-0.633c0.002-0.158-0.042-0.299-0.127-0.422
		c-0.089-0.124-0.216-0.242-0.386-0.357c-0.17-0.114-0.515-0.298-1.036-0.551c-0.488-0.234-0.854-0.458-1.099-0.673
		c-0.243-0.213-0.436-0.462-0.582-0.746c-0.143-0.282-0.216-0.612-0.212-0.989c0.004-0.71,0.249-1.267,0.735-1.67
		c0.484-0.403,1.151-0.601,2-0.595c0.417,0.003,0.816,0.056,1.192,0.158c0.378,0.102,0.773,0.243,1.186,0.426l-0.559,1.319
		c-0.426-0.179-0.781-0.303-1.061-0.375c-0.276-0.072-0.552-0.109-0.823-0.111c-0.324-0.003-0.573,0.072-0.744,0.219
		c-0.174,0.15-0.262,0.345-0.264,0.587c-0.002,0.151,0.033,0.281,0.102,0.393c0.069,0.113,0.179,0.221,0.33,0.327
		c0.152,0.105,0.509,0.295,1.074,0.571c0.748,0.363,1.261,0.728,1.535,1.09C74.094,39.018,74.229,39.461,74.227,39.984z"/>
</g>
</svg>
