<?xml version="1.0" encoding="utf-8"?>
<!-- Generator: Adobe Illustrator 21.0.0, SVG Export Plug-In . SVG Version: 6.00 Build 0)  -->
<svg version="1.1" id="圖層_1" xmlns="http://www.w3.org/2000/svg" xmlns:xlink="http://www.w3.org/1999/xlink" x="0px" y="0px"
	 viewBox="0 0 30 34" style="enable-background:new 0 0 30 34;" xml:space="preserve">
<style type="text/css">
	.st0{fill:#FFFFFF;}
	.st1{fill:#C6A869;}
	.st2{fill:none;stroke:#C6A869;stroke-miterlimit:10;}
	.st3{fill:#A0A0A0;}
	.st4{fill:#7B7B7B;}
</style>
<path class="st0" d="M14.964,33.837c-3.315,0-6.63,0-9.944,0c-0.572,0-1.127-0.085-1.646-0.336c-0.887-0.429-1.402-1.17-1.721-2.073
	c-0.227-0.642-0.28-1.31-0.322-1.982c-0.048-0.772-0.113-1.543-0.17-2.315c-0.039-0.534-0.075-1.069-0.114-1.603
	c-0.057-0.778-0.115-1.555-0.172-2.332c-0.039-0.528-0.075-1.057-0.114-1.585c-0.057-0.783-0.117-1.567-0.174-2.35
	c-0.04-0.546-0.074-1.092-0.114-1.639c-0.055-0.76-0.114-1.519-0.171-2.279c-0.038-0.51-0.076-1.021-0.113-1.531
	c-0.064-0.89-0.133-1.781-0.184-2.672c-0.013-0.229,0.002-0.468,0.058-0.689c0.161-0.638,0.66-0.988,1.395-0.99
	C3.675,9.457,5.893,9.46,8.111,9.458c0.408-0.001,0.35,0.071,0.37-0.36c0.082-1.783,0.451-3.5,1.19-5.128
	c0.466-1.026,1.085-1.945,1.971-2.662c0.809-0.654,1.733-1.024,2.771-1.118c2.215-0.201,3.853,0.758,5.083,2.528
	c0.837,1.205,1.337,2.557,1.668,3.976c0.198,0.853,0.331,1.717,0.335,2.595c0.001,0.17,0.088,0.172,0.215,0.172
	c2.265-0.002,4.531-0.003,6.796,0.001c0.171,0,0.347,0.013,0.512,0.053c0.572,0.138,0.957,0.605,0.975,1.216
	c0.012,0.409-0.016,0.821-0.042,1.23c-0.037,0.6-0.088,1.199-0.133,1.798c-0.055,0.73-0.11,1.46-0.164,2.189
	c-0.042,0.57-0.081,1.14-0.122,1.71c-0.054,0.736-0.111,1.471-0.165,2.207c-0.041,0.564-0.08,1.128-0.121,1.692
	c-0.055,0.748-0.112,1.495-0.167,2.243c-0.041,0.558-0.078,1.116-0.119,1.674c-0.054,0.742-0.111,1.483-0.165,2.225
	c-0.042,0.576-0.089,1.151-0.119,1.728c-0.048,0.912-0.203,1.797-0.65,2.608c-0.657,1.192-1.678,1.793-3.032,1.797
	c-3.345,0.009-6.689,0.003-10.034,0.003C14.964,33.835,14.964,33.836,14.964,33.837z M14.989,9.459c1.544,0,3.088-0.002,4.632,0.003
	c0.166,0.001,0.218-0.044,0.202-0.212c-0.096-0.966-0.239-1.922-0.498-2.859c-0.306-1.109-0.722-2.167-1.442-3.083
	c-1.289-1.639-3.368-1.967-5.015-0.785c-0.794,0.57-1.315,1.355-1.706,2.231c-0.641,1.437-0.902,2.961-1.014,4.518
	c-0.011,0.153,0.045,0.19,0.191,0.189C11.889,9.457,13.439,9.459,14.989,9.459z M14.98,13.611c-0.223,0.032-0.666,0.058-1.09,0.164
	c-1.337,0.333-2.364,1.077-2.935,2.364c-0.581,1.312-0.328,2.612,0.688,3.627c0.438,0.438,0.934,0.807,1.495,1.061
	c0.801,0.363,1.619,0.688,2.44,1.004c0.968,0.374,1.89,0.823,2.66,1.534c1.344,1.242,1.105,3.216-0.496,4.1
	c-1.052,0.581-2.177,0.685-3.342,0.486c-1.256-0.215-2.382-0.736-3.399-1.496c-0.21-0.157-0.415-0.157-0.631-0.035
	c-0.223,0.126-0.331,0.336-0.293,0.583c0.031,0.201,0.159,0.341,0.317,0.457c1.665,1.219,3.499,1.885,5.59,1.71
	c0.921-0.077,1.787-0.336,2.573-0.83c1.565-0.982,2.171-2.948,1.403-4.573c-0.421-0.891-1.116-1.534-1.93-2.061
	c-0.896-0.581-1.882-0.96-2.893-1.287c-0.971-0.315-1.878-0.756-2.639-1.453c-0.584-0.535-0.802-1.194-0.616-1.973
	c0.175-0.729,0.641-1.24,1.257-1.623c1.1-0.683,2.276-0.728,3.491-0.385c0.63,0.178,1.21,0.462,1.751,0.829
	c0.379,0.257,0.79,0.078,0.874-0.373c0.053-0.288-0.062-0.496-0.297-0.653C17.82,14.03,16.567,13.637,14.98,13.611z"/>
</svg>
