<?xml version="1.0" encoding="utf-8"?>
<!-- Generator: Adobe Illustrator 21.0.0, SVG Export Plug-In . SVG Version: 6.00 Build 0)  -->
<svg version="1.1" id="圖層_1" xmlns="http://www.w3.org/2000/svg" xmlns:xlink="http://www.w3.org/1999/xlink" x="0px" y="0px"
	 viewBox="0 0 24 14" style="enable-background:new 0 0 24 14;" xml:space="preserve">
<style type="text/css">
	.st0{fill:#FFFFFF;}
	.st1{fill:#C6A869;}
	.st2{fill:none;stroke:#C6A869;stroke-miterlimit:10;}
	.st3{fill:#A0A0A0;}
	.st4{fill:#212022;}
	.st5{fill:#7B7B7B;}
</style>
<path id="eye-1_7_" class="st4" d="M15,7c0,1.654-1.346,3-3,3S9,8.654,9,7c0-1.654,1.346-3,3-3S15,5.346,15,7z M24,6.551
	c0,0-4.252,7.449-11.985,7.449C4.835,14,0,6.551,0,6.551S4.446,0,12.015,0C19.709,0,24,6.551,24,6.551z M17,7c0-2.761-2.238-5-5-5
	C9.239,2,7,4.239,7,7c0,2.762,2.239,5,5,5C14.762,12,17,9.762,17,7z"/>
</svg>
